<svg width="191" height="31" viewBox="0 0 191 31" fill="none" xmlns="http://www.w3.org/2000/svg">
<g filter="url(#filter0_d_27_333)">
<path d="M4 14.688V10.92L7.576 10.32V1.2H32.512V9.888L13.84 13.032V18H7.576V14.088L4 14.688ZM13.84 9.264L26.248 7.176V4.608H13.84V9.264ZM36.1131 18V11.64L51.5931 9.72V8.4H42.1131V9.48L36.1131 10.08V5.28H57.5931V18H53.2971L52.0731 16.8L50.8731 18H36.1131ZM42.1131 14.88H51.5931V12.624L42.1131 13.8V14.88ZM59.7578 8.4V5.28H68.7578V18H62.7578V8.4H59.7578ZM62.7578 3.6V0.24H68.7578V3.6H62.7578ZM73.0741 18V5.28H94.7941V18H73.0741ZM79.0741 14.88H88.7941V8.4H79.0741V14.88ZM96.9531 4.608V1.2H106.793V14.592H116.825V12.552L123.089 11.688V18H100.529V4.608H96.9531ZM126.207 18V5.28H147.927V18H126.207ZM132.207 14.88H141.927V8.4H132.207V14.88ZM146.006 18.96H153.086L154.526 18.24V8.4H151.526V5.28H160.526V19.2L154.646 22.08H146.006V18.96ZM154.526 3.6V0.24H160.526V3.6H154.526ZM164.855 18V11.64L180.335 9.72V8.4H170.855V9.48L164.855 10.08V5.28H186.335V18H182.039L180.815 16.8L179.615 18H164.855ZM170.855 14.88H180.335V12.624L170.855 13.8V14.88Z" fill="black"/>
</g>
<defs>
<filter id="filter0_d_27_333" x="0" y="0.23999" width="190.335" height="29.8401" filterUnits="userSpaceOnUse" color-interpolation-filters="sRGB">
<feFlood flood-opacity="0" result="BackgroundImageFix"/>
<feColorMatrix in="SourceAlpha" type="matrix" values="0 0 0 0 0 0 0 0 0 0 0 0 0 0 0 0 0 0 127 0" result="hardAlpha"/>
<feOffset dy="4"/>
<feGaussianBlur stdDeviation="2"/>
<feComposite in2="hardAlpha" operator="out"/>
<feColorMatrix type="matrix" values="0 0 0 0 0 0 0 0 0 0 0 0 0 0 0 0 0 0 0.25 0"/>
<feBlend mode="normal" in2="BackgroundImageFix" result="effect1_dropShadow_27_333"/>
<feBlend mode="normal" in="SourceGraphic" in2="effect1_dropShadow_27_333" result="shape"/>
</filter>
</defs>
</svg>
