<svg width="49" height="49" viewBox="0 0 49 49" fill="none" xmlns="http://www.w3.org/2000/svg">
<path d="M20.1075 34.9747L32.5635 24.689L20.1075 14.4033V34.9747ZM47.8515 8.12897C48.1635 9.74039 48.3795 11.9004 48.5235 14.6432C48.6915 17.3861 48.7635 19.7518 48.7635 21.809L48.9075 24.689C48.9075 32.1975 48.5235 37.7175 47.8515 41.249C47.2515 44.3347 45.8595 46.3232 43.6995 47.1804C42.5715 47.6261 40.5075 47.9347 37.3395 48.1404C34.2195 48.3804 31.3635 48.4833 28.7235 48.4833L24.9075 48.689C14.8515 48.689 8.58747 48.1404 6.11547 47.1804C3.95547 46.3232 2.56347 44.3347 1.96347 41.249C1.65147 39.6375 1.43547 37.4775 1.29147 34.7347C1.12347 31.9918 1.05147 29.6261 1.05147 27.569L0.907471 24.689C0.907471 17.1804 1.29147 11.6604 1.96347 8.12897C2.56347 5.04325 3.95547 3.05468 6.11547 2.19754C7.24347 1.75182 9.30747 1.44325 12.4755 1.23754C15.5955 0.997536 18.4515 0.894679 21.0915 0.894679L24.9075 0.688965C34.9635 0.688965 41.2275 1.23754 43.6995 2.19754C45.8595 3.05468 47.2515 5.04325 47.8515 8.12897Z" fill="#F8F8F8"/>
</svg>
