<svg width="49" height="49" viewBox="0 0 49 49" fill="none" xmlns="http://www.w3.org/2000/svg">
<path d="M24.2245 0.635742C30.7453 0.635742 31.5589 0.659742 34.1173 0.779742C36.6733 0.899742 38.4133 1.30054 39.9445 1.89574C41.5285 2.50534 42.8629 3.33094 44.1973 4.66294C45.4177 5.86269 46.362 7.31396 46.9645 8.91574C47.5573 10.4445 47.9605 12.1869 48.0805 14.7429C48.1933 17.3013 48.2245 18.1149 48.2245 24.6357C48.2245 31.1565 48.2005 31.9701 48.0805 34.5285C47.9605 37.0845 47.5573 38.8245 46.9645 40.3557C46.3637 41.9584 45.4192 43.41 44.1973 44.6085C42.9972 45.8285 41.546 46.7728 39.9445 47.3757C38.4157 47.9685 36.6733 48.3717 34.1173 48.4917C31.5589 48.6045 30.7453 48.6357 24.2245 48.6357C17.7037 48.6357 16.8901 48.6117 14.3317 48.4917C11.7757 48.3717 10.0357 47.9685 8.50449 47.3757C6.90207 46.7745 5.45055 45.83 4.25169 44.6085C3.03106 43.409 2.08672 41.9577 1.48449 40.3557C0.889288 38.8269 0.488487 37.0845 0.368487 34.5285C0.255687 31.9701 0.224487 31.1565 0.224487 24.6357C0.224487 18.1149 0.248487 17.3013 0.368487 14.7429C0.488487 12.1845 0.889288 10.4469 1.48449 8.91574C2.08505 7.31297 3.02962 5.86131 4.25169 4.66294C5.4509 3.4419 6.90232 2.49749 8.50449 1.89574C10.0357 1.30054 11.7733 0.899742 14.3317 0.779742C16.8901 0.666942 17.7037 0.635742 24.2245 0.635742ZM24.2245 12.6357C21.0419 12.6357 17.9896 13.9 15.7392 16.1505C13.4888 18.4009 12.2245 21.4531 12.2245 24.6357C12.2245 27.8183 13.4888 30.8706 15.7392 33.121C17.9896 35.3715 21.0419 36.6357 24.2245 36.6357C27.4071 36.6357 30.4593 35.3715 32.7098 33.121C34.9602 30.8706 36.2245 27.8183 36.2245 24.6357C36.2245 21.4531 34.9602 18.4009 32.7098 16.1505C30.4593 13.9 27.4071 12.6357 24.2245 12.6357ZM39.8245 12.0357C39.8245 11.2401 39.5084 10.477 38.9458 9.91442C38.3832 9.35181 37.6201 9.03574 36.8245 9.03574C36.0288 9.03574 35.2658 9.35181 34.7032 9.91442C34.1406 10.477 33.8245 11.2401 33.8245 12.0357C33.8245 12.8314 34.1406 13.5945 34.7032 14.1571C35.2658 14.7197 36.0288 15.0357 36.8245 15.0357C37.6201 15.0357 38.3832 14.7197 38.9458 14.1571C39.5084 13.5945 39.8245 12.8314 39.8245 12.0357ZM24.2245 17.4357C26.134 17.4357 27.9654 18.1943 29.3157 19.5446C30.6659 20.8948 31.4245 22.7262 31.4245 24.6357C31.4245 26.5453 30.6659 28.3767 29.3157 29.7269C27.9654 31.0772 26.134 31.8357 24.2245 31.8357C22.3149 31.8357 20.4836 31.0772 19.1333 29.7269C17.7831 28.3767 17.0245 26.5453 17.0245 24.6357C17.0245 22.7262 17.7831 20.8948 19.1333 19.5446C20.4836 18.1943 22.3149 17.4357 24.2245 17.4357Z" fill="#F8F8F8"/>
</svg>
